<svg width="21" height="19" viewBox="0 0 21 19" fill="none" xmlns="http://www.w3.org/2000/svg">
<path d="M15.0456 0.807535C13.2938 0.798173 11.6284 1.56753 10.5 2.90751C9.37863 1.55837 7.70864 0.786827 5.9544 0.807535C2.66586 0.807535 0 3.4734 0 6.76193C0 12.3974 9.83543 17.8999 10.2342 18.1126C10.3951 18.2201 10.6049 18.2201 10.7658 18.1126C11.1646 17.8999 21 12.4771 21 6.76193C21 3.4734 18.3341 0.807535 15.0456 0.807535ZM10.5 17.0493C8.95821 16.1455 1.06329 11.3341 1.06329 6.76193C1.06329 4.06066 3.25312 1.87078 5.95445 1.87078C7.60866 1.84905 9.15674 2.68343 10.0481 4.07709C10.2291 4.32666 10.5782 4.38227 10.8277 4.20124C10.8754 4.16664 10.9173 4.12477 10.9519 4.07709C12.4302 1.81623 15.4614 1.18186 17.7223 2.66018C19.1063 3.56519 19.9394 5.10823 19.9367 6.76188C19.9367 11.3872 12.0417 16.1721 10.5 17.0493Z" fill="#4E3535"/>
</svg>
