<svg width="20" height="20" viewBox="0 0 20 20" fill="none" xmlns="http://www.w3.org/2000/svg">
<path d="M10.4687 0C5.01043 0 2.25836 3.9131 2.25836 7.17647C2.25836 9.15227 3.00638 10.9098 4.61052 11.565C4.87385 11.6725 5.10974 11.5689 5.18633 11.2777C5.23916 11.0761 5.36468 10.5676 5.42058 10.3557C5.49757 10.0676 5.46747 9.96662 5.25533 9.71558C4.79276 9.16988 4.49708 8.46343 4.49708 7.46273C4.49708 4.55955 6.66925 1.96064 10.1536 1.96064C13.2382 1.96064 14.9332 3.84573 14.9332 6.36313C14.9332 9.67545 13.4673 12.4709 11.2912 12.4709C10.0893 12.4709 9.18993 11.477 9.47824 10.258C9.82348 8.80273 10.492 7.23196 10.492 6.18171C10.492 5.24142 9.9877 4.45696 8.94298 4.45696C7.71438 4.45696 6.72761 5.72795 6.72761 7.43038C6.72761 8.51483 7.09394 9.2483 7.09394 9.2483C7.09394 9.2483 5.83646 14.5753 5.61654 15.5082C5.17732 17.3659 5.55061 19.6435 5.58214 19.8735C5.60036 20.0098 5.77544 20.0422 5.85489 19.9394C5.96854 19.7913 7.4316 17.9851 7.92898 16.1801C8.06965 15.669 8.73658 13.0226 8.73658 13.0226C9.13587 13.7837 10.3024 14.4543 11.5431 14.4543C15.2359 14.4543 17.7416 11.0877 17.7416 6.58101C17.7418 3.17348 14.8552 0 10.4687 0Z" fill="white"/>
</svg>
