<svg width="21" height="21" viewBox="0 0 21 21" fill="none" xmlns="http://www.w3.org/2000/svg">
<g clip-path="url(#clip0_1_140)">
<path d="M16.8914 15.9785C15.6332 15.9785 14.6088 17.003 14.6088 18.2611C14.6088 19.5193 15.6332 20.5438 16.8914 20.5438C18.1496 20.5438 19.174 19.5193 19.174 18.2611C19.174 17.0029 18.1495 15.9785 16.8914 15.9785ZM16.8914 19.6307C16.1363 19.6307 15.5218 19.0162 15.5218 18.2611C15.5218 17.506 16.1363 16.8915 16.8914 16.8915C17.6465 16.8915 18.2609 17.506 18.2609 18.2611C18.2609 19.0162 17.6464 19.6307 16.8914 19.6307Z" fill="#CA3192"/>
<path d="M7.76087 15.9785C6.50271 15.9785 5.47827 17.003 5.47827 18.2611C5.47827 19.5193 6.50271 20.5438 7.76087 20.5438C9.01903 20.5438 10.0435 19.5193 10.0435 18.2612C10.0435 17.003 9.01907 15.9785 7.76087 15.9785ZM7.76087 19.6307C7.00577 19.6307 6.3913 19.0162 6.3913 18.2611C6.3913 17.506 7.00577 16.8915 7.76087 16.8915C8.51597 16.8915 9.13044 17.506 9.13044 18.2611C9.13044 19.0162 8.51597 19.6307 7.76087 19.6307Z" fill="#CA3192"/>
<path d="M18.7174 14.1522H8.17995C7.09616 14.1522 6.15484 13.3807 5.94208 12.317L3.64305 0.823587C3.60012 0.609935 3.41296 0.456543 3.19567 0.456543H0.456537C0.204536 0.456543 0 0.661079 0 0.91308C0 1.16508 0.204536 1.36962 0.456537 1.36962H2.82131L5.04638 12.4969C5.34405 13.9851 6.66247 15.0653 8.17995 15.0653H18.7174C18.9694 15.0653 19.1739 14.8608 19.1739 14.6088C19.1739 14.3568 18.9694 14.1522 18.7174 14.1522Z" fill="#CA3192"/>
<path d="M20.8859 3.35009C20.7991 3.25238 20.675 3.1958 20.5435 3.1958H4.1087C3.8567 3.1958 3.65216 3.40034 3.65216 3.65234C3.65216 3.90434 3.8567 4.10883 4.1087 4.10883H20.0267L19.3775 9.30039C19.2917 9.98427 18.7073 10.5001 18.018 10.5001H5.47826C5.22626 10.5001 5.02173 10.7047 5.02173 10.9567C5.02173 11.2087 5.22626 11.4132 5.47826 11.4132H18.018C19.1666 11.4132 20.1409 10.554 20.2833 9.41364L20.9964 3.70892C21.0128 3.57924 20.9726 3.44776 20.8859 3.35009Z" fill="#CA3192"/>
</g>
<defs>
<clipPath id="clip0_1_140">
<rect width="21" height="21" fill="white"/>
</clipPath>
</defs>
</svg>
