<svg width="22" height="22" viewBox="0 0 22 22" fill="none" xmlns="http://www.w3.org/2000/svg">
<path d="M0.433566 17.9626C2.4704 19.2551 4.8409 19.938 7.2884 19.938C10.8726 19.938 14.157 18.5612 16.5376 16.0614C18.8155 13.6689 20.0686 10.4542 20.0062 7.19176C20.8697 6.45293 21.8854 5.04218 21.8854 3.66718C21.8854 3.14009 21.3134 2.80551 20.8496 3.07409C20.0383 3.55076 19.2986 3.67543 18.5377 3.46184C16.984 1.94751 14.6712 1.62851 12.7224 2.67901C11.0192 3.59568 10.0723 5.27318 10.1576 7.10651C7.28015 6.75543 4.62182 5.31259 2.76832 3.07043C2.46398 2.70468 1.88648 2.74776 1.64448 3.16209C0.751649 4.69109 0.760816 6.46301 1.53723 7.89393C1.16782 7.95901 0.939566 8.26976 0.939566 8.60618C0.939566 10.0444 1.58673 11.3663 2.62898 12.2683C2.43465 12.4553 2.37048 12.733 2.45298 12.9805C2.91132 14.3573 3.94898 15.4335 5.24607 15.9725C3.83532 16.6463 2.27515 16.8708 0.886399 16.7003C0.167733 16.6032 -0.187017 17.5693 0.433566 17.9626ZM7.47632 16.2081C7.99057 15.813 7.7174 14.9898 7.07207 14.9761C5.9354 14.9523 4.90048 14.3922 4.25607 13.5113C4.56682 13.4911 4.88857 13.4434 5.19473 13.3609C5.89232 13.1721 5.85932 12.1656 5.15073 12.0235C3.86465 11.765 2.8554 10.8282 2.47682 9.62184C2.8224 9.70709 3.1744 9.75476 3.52548 9.76118C4.22123 9.76484 4.48432 8.87293 3.9169 8.49984C2.63815 7.65743 2.09273 6.16968 2.4539 4.77084C4.6869 7.03318 7.71648 8.39626 10.9211 8.55026C11.3804 8.57868 11.7251 8.14693 11.6242 7.70968C11.1888 5.82226 12.243 4.49951 13.3751 3.88993C14.4952 3.28493 16.2937 3.09609 17.6724 4.54259C18.0821 4.97434 19.4645 4.99084 20.1676 4.82676C19.8522 5.42076 19.3673 5.98451 18.9136 6.30168C18.7201 6.43734 18.6092 6.66284 18.6211 6.89843C18.7687 9.90968 17.6467 12.9035 15.543 15.1118C13.4236 17.3365 10.4931 18.5621 7.28932 18.5621C6.01515 18.5621 4.76573 18.3549 3.58507 17.9553C4.99673 17.6821 6.33782 17.0844 7.47632 16.2081Z" fill="white"/>
</svg>
