<svg width="20" height="20" viewBox="0 0 20 20" fill="none" xmlns="http://www.w3.org/2000/svg">
<g clip-path="url(#clip0_1_340)">
<path d="M9.99923 17.2649C9.99755 17.2649 9.99572 17.2649 9.99389 17.2649C9.3904 17.2607 4.05531 17.2121 2.54377 16.8033C1.48741 16.5193 0.653512 15.6863 0.368783 14.6298C-0.0267259 13.145 -0.00154887 10.2862 0.00119771 10.058C-0.00139628 9.83076 -0.0268785 6.94837 0.367562 5.45133C0.36802 5.44996 0.368325 5.44843 0.368783 5.44706C0.650308 4.40259 1.50297 3.54382 2.54118 3.25909C2.54377 3.25833 2.54652 3.25772 2.54911 3.25696C4.04356 2.8642 9.38918 2.81613 9.99389 2.81201H10.0047C10.6097 2.81613 15.959 2.86481 17.4567 3.2742C18.5103 3.5574 19.3436 4.38932 19.6291 5.44446C20.0394 6.94257 20.0014 9.83122 19.9973 10.0751C20.0002 10.3152 20.0241 13.1483 19.6309 14.6406C19.6306 14.6422 19.6301 14.6435 19.6298 14.6449C19.3449 15.7014 18.5112 16.5344 17.4536 16.8187C17.4522 16.8191 17.4507 16.8195 17.4493 16.8199C15.9551 17.2125 10.6093 17.2606 10.0047 17.2649C10.0029 17.2649 10.0011 17.2649 9.99923 17.2649ZM1.87788 5.85203C1.53059 7.17344 1.5634 10.0191 1.5637 10.0477V10.0683C1.55332 10.8575 1.58979 13.143 1.87803 14.2255C2.0178 14.7438 2.42903 15.1544 2.95057 15.2946C4.06584 15.5963 8.41109 15.6912 9.99923 15.7024C11.5915 15.6912 15.9432 15.5989 17.0502 15.3093C17.57 15.1686 17.9799 14.7594 18.1206 14.2404C18.4091 13.1421 18.4453 10.8678 18.4348 10.0836C18.4348 10.0754 18.4348 10.0671 18.4349 10.0589C18.4493 9.26023 18.421 6.94807 18.122 5.85691C18.1217 5.85584 18.1213 5.85477 18.1212 5.8537C17.9808 5.33307 17.5694 4.92246 17.0479 4.78223C15.9435 4.48026 11.5912 4.38565 9.99923 4.37451C8.40804 4.38565 4.06065 4.47782 2.95027 4.76712C2.43864 4.90903 2.01811 5.33429 1.87788 5.85203ZM18.8754 14.4417H18.8759H18.8754ZM8.0078 13.2023V6.87437L13.4766 10.0384L8.0078 13.2023Z" fill="white"/>
</g>
<defs>
<clipPath id="clip0_1_340">
<rect width="20" height="20" fill="white"/>
</clipPath>
</defs>
</svg>
